<?xml version="1.0" encoding="utf-8"?>
<!-- Generator: Adobe Illustrator 26.2.1, SVG Export Plug-In . SVG Version: 6.00 Build 0)  -->
<svg version="1.0" id="Layer_1" xmlns="http://www.w3.org/2000/svg" xmlns:xlink="http://www.w3.org/1999/xlink" x="0px" y="0px"
	 viewBox="0 0 100 33.1" style="enable-background:new 0 0 100 33.1;" xml:space="preserve">
<style type="text/css">
	.st0{enable-background:new    ;}
	.st1{fill:#5998d1;}
</style>
<g class="st0">
	<path class="st1" d="M28.9,14.8L28.4,6l5.3,3.2l4.8-3.8l0.5,8.8l-2.4,0.1l-0.3-5l-2.5,1.9l-2.7-1.6l0.3,5L28.9,14.8z"/>
	<path class="st1" d="M48.8,4.8l0.5,8.8l-2.5,0.1L46.6,10l-4.3,0.3l0.2,3.7L40,14.2l-0.5-8.8L48.8,4.8z M42.1,6.5L42.2,9l4.2-0.2
		l-0.1-2.5L42.1,6.5z"/>
	<path class="st1" d="M59.4,11.8l-1,1.4l-8.2,0.5l-0.5-8.8L59,4.2l-1,1.4l-5.7,0.3l0.4,6.2L59.4,11.8z"/>
	<path class="st1" d="M68.8,3.7l0.5,8.8l-2.5,0.1l-0.2-3.8L62.4,9l0.2,3.8L60.2,13l-0.5-8.8l2.4-0.1l0.2,3.8l4.2-0.2L66.3,4
		L68.8,3.7z"/>
	<path class="st1" d="M70,3.6l2.5-0.1l0.5,8.8l-2.5,0.1L70,3.6z"/>
	<path class="st1" d="M83.3,11.7l-7-4.4l0.3,4.8l-2.5,0.1l-0.5-8.8l7,4.4L80.4,3l2.4-0.1L83.3,11.7z"/>
	<path class="st1" d="M92.4,9.8l1.1,1.2l-9.2,0.5l-0.5-8.8L93,2.3l-1,1.4L86.3,4l0.1,2.5l6.2-0.4l0.1,1.3l-6.2,0.4l0.1,2.5L92.4,9.8
		z"/>
</g>
<g class="st0">
	<path class="st1" d="M36.6,27.3L36,17.7l4.6,3.6l4.1-4.1l0.6,9.6l-2.1,0.1l-0.3-5.5l-2.1,2.1l-2.3-1.8l0.3,5.5L36.6,27.3z"/>
	<path class="st1" d="M53.5,16.7l0.6,9.6L52,26.4l-0.2-4.1L48,22.5l0.2,4.1L46,26.7l-0.6-9.6L53.5,16.7z M47.8,18.4l0.2,2.7l3.6-0.2
		l-0.2-2.7L47.8,18.4z"/>
	<path class="st1" d="M62.8,24.3L62,25.8l-6.3,0.4l-1-1.4l5.7-0.3l0.3-0.6l-0.1-2.1l-5.8,0.3l-0.2-4l0.9-1.6l7.2-0.4l-0.8,1.5
		l-4.7,0.3l-0.4,0.7l0.1,2l5.8-0.3L62.8,24.3z"/>
	<path class="st1" d="M71.2,17.1l-2.6,0.2l0.5,8.2H67l-0.5-8.2l-2.6,0.2l-1-1.4l9.1-0.5L71.2,17.1z"/>
	<path class="st1" d="M79.8,23.3l1,1.4L73,25.2l-0.6-9.6l7.9-0.5l-0.8,1.5l-4.9,0.3l0.2,2.7l5.3-0.3l0.1,1.4L74.8,21l0.2,2.7
		L79.8,23.3z"/>
	<path class="st1" d="M90.3,24.1l-2.5,0.1l-4.1-5.7l3.6-0.2L87.2,16l-3.9,0.2l0.5,8.2l-2.1,0.1L81,15.1l8.1-0.5l0.3,5.1l-2.2,0.1
		L90.3,24.1z"/>
	<path class="st1" d="M98.6,22.2l-0.8,1.5l-6.3,0.4l-1-1.4l5.7-0.3l0.3-0.6l-0.1-2.1L90.6,20l-0.2-4l0.9-1.6l7.2-0.4l-0.8,1.5
		L93,15.8l-0.4,0.7l0.1,2l5.8-0.3L98.6,22.2z"/>
</g>
<path class="st1" d="M25.9,16.8c-0.1-0.6-0.2-1.1-0.4-1.7l1.9-1.1l-1.8-3.2l-1.9,1.1c-0.5-0.6-1-1.2-1.6-1.7L23,8.7l-3.2-1.8
	l-0.9,1.6C18.3,8.3,17.7,8.1,17,8V6.1h-3.7v1.8c-0.8,0.1-1.5,0.3-2.2,0.6L10,6.7l-3.1,2L8,10.5c-0.4,0.4-0.9,0.8-1.2,1.3l-2-1.2
	L3,13.7l2,1.2c-0.2,0.6-0.4,1.2-0.5,1.9H2.7v3.7h1.8c0.1,0.8,0.3,1.5,0.6,2.2l-1.5,0.9l1.8,3.2l1.6-1c0.4,0.4,0.8,0.8,1.2,1.2
	l-0.8,1.5l3.2,1.8l0.8-1.5c0.6,0.2,1.3,0.4,2,0.5v1.8h3.7v-1.8c0.6-0.1,1.2-0.3,1.8-0.5l1,1.7l3.1-1.9l-1-1.5c0.5-0.4,1-0.9,1.5-1.5
	l1.9,1.1l1.8-3.2l-1.9-1.1c0.2-0.6,0.4-1.3,0.5-2h1.9v-3.6C27.7,16.8,25.9,16.8,25.9,16.8z M15.2,24c-3,0-5.4-2.4-5.4-5.4
	c0-2.7,2-4.9,4.5-5.3v-1.8h2v1.8c2.5,0.5,4.3,2.7,4.3,5.3C20.6,21.6,18.2,24,15.2,24z"/>
</svg>
