<svg id="Layer_2" data-name="Layer 2" xmlns="http://www.w3.org/2000/svg" viewBox="0 0 87.9 24.79"><defs><style>.cls-1{fill:#e30613;}</style></defs><title>wto_logo_rgb</title><polygon class="cls-1" points="38.37 8.66 44.54 8.66 40.79 24.25 40.78 24.3 50.71 24.29 50.74 24.29 54.32 8.66 59.96 8.66 62.3 0.89 62.31 0.84 40.59 0.81 40.56 0.81 38.39 8.61 38.37 8.66"/><polygon class="cls-1" points="12.51 24.3 17.54 10.38 16.73 24.26 16.73 24.3 28.86 24.29 28.89 24.29 39.31 0.84 28.77 0.84 23.29 16.17 24.4 0.84 14.11 0.84 9.07 16.1 9.66 0.88 9.66 0.84 0.04 0.82 0 0.82 0 24.29 12.48 24.3 12.51 24.3"/><path class="cls-1" d="M315.86,416.27c2.53,3.22,7.68,3.58,9.78,3.58h1.05c3.48,0,6.76,0,9.54-1.68,3.08-1.87,5-5.57,6.18-11.62.62-3.33.13-6-1.47-7.92-1.36-1.62-4.24-3.56-10.34-3.56h-.91c-2.61,0-5.57,0-8.21,1.63-3,1.91-5.2,5.74-6.67,11.71C314,411.7,314.36,414.34,315.86,416.27Zm8.65-8.14c1.16-4.15,2-4.78,4.21-4.78H329c1.67,0,2.66.3,3.19,1s.63,1.87.21,3.77h0c-.75,3.41-1.41,4.91-4.66,4.91h-.58a3,3,0,0,1-2.41-1.11C324.12,411.05,324.05,409.79,324.51,408.13Z" transform="translate(-254.77 -395.07)"/></svg>